# ProBuilder 4.4.0
# https://unity3d.com/unity/features/worldbuilding/probuilder
# 17-12-2020 10:23:15

mtllib ./CartColliderMesh.mtl
o CartColliderMesh

g CartColliderMesh
v 0.2997599 -0.282154 0.5136334
v -0.3154898 -0.282154 0.5136334
v 0.2997599 -0.2291299 0.5136334
v -0.3154898 -0.2291299 0.5136334
v -0.3154898 -0.282154 -0.505324
v -0.3154898 -0.2291299 -0.505324
v 0.2997599 -0.282154 -0.505324
v 0.2997599 -0.2291299 -0.505324
v 0.270134 -0.2290395 0.4668922
v -0.2721243 -0.2290395 0.4668922
v 0.270134 -0.2290395 -0.4584532
v -0.2721243 -0.2290395 -0.4584532
v 0.4463787 0.3062049 0.7245324
v -0.44065 0.3062049 0.7245324
v 0.4085083 0.3063203 0.6647837
v -0.3852158 0.3063203 0.6647837
v 0.4463787 0.3062049 -0.7350507
v 0.4085083 0.3063203 -0.6751366
v -0.44065 0.3062049 -0.7350507
v -0.3852158 0.3063203 -0.6751366

vt 0.2997599 -0.282154
vt -0.3154898 -0.282154
vt 0.2997599 -0.2291299
vt -0.3154898 -0.2291299
vt 0.5136334 -0.282154
vt -0.505324 -0.282154
vt 0.5136334 -0.2291299
vt -0.505324 -0.2291299
vt 0.3154898 -0.282154
vt -0.2997599 -0.282154
vt 0.3154898 -0.2291299
vt -0.2997599 -0.2291299
vt 0.505324 -0.282154
vt -0.5136334 -0.282154
vt 0.505324 -0.2291299
vt -0.5136334 -0.2291299
vt -0.270134 0.4668922
vt 0.2721243 0.4668922
vt -0.270134 -0.4584532
vt 0.2721243 -0.4584532
vt 0.2997599 -0.505324
vt -0.3154898 -0.505324
vt 0.2997599 0.5136334
vt -0.3154898 0.5136334
vt -0.4463787 0.7239397
vt 0.44065 0.7239397
vt -0.4085083 0.6641909
vt 0.3852158 0.6641909
vt -0.4454436 -0.7350507
vt -0.4454436 0.7245324
vt -0.407573 -0.6751366
vt -0.407573 0.6647837
vt 0.4400116 0.7245324
vt 0.4400116 -0.7350507
vt 0.3845773 0.6647837
vt 0.3845773 -0.6751366
vt 0.44065 -0.7344596
vt -0.4463787 -0.7344596
vt 0.3852158 -0.6745453
vt -0.4085083 -0.6745453
vt 0.5136334 -0.1512891
vt -0.505324 -0.1512891
vt 0.7245324 0.3984821
vt -0.7350507 0.3984821
vt 0.2721243 -0.05295454
vt -0.270134 -0.05295454
vt 0.3852158 0.5178091
vt -0.4085083 0.5178091
vt 0.4584532 -0.1678507
vt -0.4668922 -0.1678507
vt 0.6751366 0.3793236
vt -0.6647837 0.3793236
vt 0.3154898 -0.01128627
vt -0.2997599 -0.01128627
vt 0.44065 0.5712578
vt -0.4463787 0.5712578
vt 0.270134 -0.04030716
vt -0.2721243 -0.04030716
vt 0.4085083 0.5372409
vt -0.3852158 0.5372409
vt 0.505324 -0.1418084
vt -0.5136334 -0.1418084
vt 0.7350507 0.4132415
vt -0.7245324 0.4132415
vt 0.4668922 -0.1541521
vt -0.4584532 -0.1541521
vt 0.6647837 0.3988014
vt -0.6751366 0.3988014
vt 0.2997599 -0.02491643
vt -0.3154898 -0.02491643
vt 0.4463787 0.5504631
vt -0.44065 0.5504631

vn 0 0 1
vn -1 0 0
vn 0 0 -1
vn 1 0 0
vn 0 1 0
vn 0 -1 0
vn 0 0.9999982 0.00193133
vn 0.003047077 0.9999954 0
vn -0.002081644 0.9999979 0
vn 0 0.9999982 -0.001925997
vn -0.973741 -0.2276588 0
vn 0 0.3467136 -0.9379711
vn 0.978408 0.2066827 0
vn 0 -0.3943508 -0.91896
vn 0 0.3751782 0.9269528
vn 0.9644804 -0.2641544 0
vn -0.9681823 0.2502459 0
vn 0 -0.3665389 0.9304027

usemtl ProBuilderDefault
f 3/3/1 4/4/1 2/2/1 1/1/1
f 4/7/2 6/8/2 5/6/2 2/5/2
f 6/11/3 8/12/3 7/10/3 5/9/3
f 8/15/4 3/16/4 1/14/4 7/13/4
f 11/19/5 12/20/5 10/18/5 9/17/5
f 1/23/6 2/24/6 5/22/6 7/21/6
f 15/27/7 16/28/7 14/26/7 13/25/7
f 18/31/8 15/32/8 13/30/8 17/29/8
f 16/35/9 20/36/9 19/34/9 14/33/9
f 20/39/10 18/40/10 17/38/10 19/37/10
f 14/43/11 19/44/11 6/42/11 4/41/11
f 16/47/12 15/48/12 9/46/12 10/45/12
f 20/51/13 16/52/13 10/50/13 12/49/13
f 19/55/14 17/56/14 8/54/14 6/53/14
f 18/59/15 20/60/15 12/58/15 11/57/15
f 17/63/16 13/64/16 3/62/16 8/61/16
f 15/67/17 18/68/17 11/66/17 9/65/17
f 13/71/18 14/72/18 4/70/18 3/69/18

